<svg id="svg" version="1.1" xmlns="http://www.w3.org/2000/svg" xmlns:xlink="http://www.w3.org/1999/xlink" width="400" height="240" viewBox="0, 0, 400,240"><g id="svgg"><path id="path0" d="M192.917 38.202 C 145.746 42.611,112.048 87.086,120.081 134.334 C 128.930 186.378,183.429 216.674,231.813 196.445 C 253.529 187.366,271.547 167.628,278.101 145.738 C 279.457 141.211,279.718 140.192,280.408 136.735 C 291.200 82.635,247.238 33.125,192.917 38.202 M208.043 40.587 C 245.058 43.995,273.923 72.499,279.273 110.924 C 279.703 114.013,279.706 126.865,279.278 129.652 C 279.106 130.774,278.857 132.449,278.725 133.373 C 275.779 154.028,262.752 174.522,244.778 186.778 C 207.853 211.956,156.907 201.140,133.461 163.145 C 101.202 110.868,135.737 43.828,196.759 40.272 C 198.805 40.153,205.298 40.334,208.043 40.587 M196.639 43.603 C 173.762 45.196,154.020 55.659,140.619 73.292 C 114.531 107.619,121.532 156.520,156.182 182.003 C 161.975 186.263,174.425 192.610,178.950 193.609 C 183.595 194.635,187.305 195.500,188.389 195.812 C 190.456 196.406,202.152 196.984,204.989 196.632 C 206.273 196.473,208.187 196.257,209.244 196.152 C 211.659 195.911,214.971 195.333,216.891 194.816 C 217.703 194.598,218.800 194.340,219.328 194.243 C 221.696 193.809,229.001 191.337,229.862 190.679 C 230.011 190.565,230.618 190.285,231.212 190.056 C 234.190 188.908,241.060 184.878,245.053 181.936 C 278.995 156.927,286.259 107.809,260.991 74.164 C 245.711 53.819,220.674 41.929,196.639 43.603 M211.645 46.837 C 212.833 47.123,214.346 47.436,215.006 47.533 C 216.302 47.723,217.724 48.065,220.148 48.771 C 220.996 49.018,221.832 49.220,222.005 49.220 C 226.335 49.220,245.711 60.467,249.845 65.380 C 250.613 66.292,250.658 66.256,246.677 67.932 C 243.765 69.157,227.499 75.988,219.088 79.518 C 217.503 80.183,214.856 81.297,213.205 81.994 C 203.483 86.099,200.145 87.424,199.794 87.319 C 199.453 87.216,192.339 84.129,190.276 83.189 C 189.880 83.009,186.693 81.602,183.193 80.064 C 179.694 78.526,175.642 76.741,174.190 76.098 C 172.737 75.456,166.957 72.919,161.345 70.462 C 149.583 65.312,150.430 65.816,151.641 64.687 C 158.354 58.430,169.750 51.868,178.271 49.353 C 179.064 49.119,180.178 48.776,180.748 48.591 C 187.937 46.256,205.165 45.278,211.645 46.837 M149.278 70.048 C 149.692 71.071,151.884 76.609,154.149 82.353 C 156.415 88.097,159.176 95.088,160.287 97.889 C 161.397 100.689,162.305 103.037,162.305 103.106 C 162.305 103.321,160.680 104.063,155.702 106.122 C 153.061 107.214,149.766 108.590,148.379 109.179 C 146.993 109.768,143.265 111.330,140.096 112.650 C 136.927 113.971,132.983 115.623,131.333 116.322 C 129.682 117.020,128.071 117.671,127.753 117.768 L 127.174 117.944 127.328 115.086 C 128.192 99.019,134.781 83.109,145.698 70.728 C 148.375 67.692,148.328 67.701,149.278 70.048 M254.836 70.528 C 263.920 81.350,268.685 90.255,271.640 101.932 C 272.794 106.491,273.240 109.653,273.830 117.471 C 274.041 120.267,276.972 121.246,251.140 109.891 C 246.188 107.714,241.290 105.579,240.255 105.145 C 237.880 104.151,237.778 104.866,241.637 95.438 C 243.312 91.345,246.234 84.160,248.130 79.472 C 252.517 68.623,252.497 68.667,252.919 68.667 C 253.114 68.667,253.977 69.505,254.836 70.528 M160.605 72.654 C 165.637 74.864,166.113 75.074,174.190 78.638 C 177.095 79.921,180.714 81.509,182.233 82.168 C 183.752 82.827,185.534 83.605,186.194 83.897 C 186.855 84.190,189.473 85.339,192.013 86.452 C 196.422 88.384,197.160 88.857,196.218 89.151 C 195.987 89.223,194.394 89.872,192.677 90.593 C 177.294 97.052,179.603 96.464,177.654 94.418 C 176.804 93.526,174.597 91.177,172.749 89.197 C 170.900 87.217,168.356 84.516,167.094 83.195 C 161.384 77.213,155.727 71.107,155.622 70.812 C 155.484 70.425,155.789 70.538,160.605 72.654 M246.651 70.921 C 246.545 71.104,244.401 73.400,241.885 76.023 C 239.370 78.646,233.968 84.323,229.881 88.639 C 225.793 92.954,222.199 96.560,221.893 96.652 C 221.328 96.821,220.980 96.679,208.223 91.056 C 205.681 89.935,203.603 88.896,203.605 88.747 C 203.607 88.598,207.361 86.913,211.948 85.003 C 216.535 83.093,226.122 79.072,233.253 76.068 C 246.256 70.589,247.009 70.300,246.651 70.921 M154.484 73.204 C 157.614 76.583,159.671 78.783,163.258 82.582 C 165.309 84.755,167.850 87.457,168.906 88.585 C 169.962 89.713,171.813 91.663,173.020 92.917 C 175.760 95.764,176.471 96.616,176.471 97.053 C 176.471 97.420,164.797 102.452,164.541 102.196 C 164.291 101.946,152.461 71.947,152.461 71.562 C 152.461 71.134,152.887 71.480,154.484 73.204 M246.380 77.681 C 235.639 104.264,236.170 103.001,235.726 103.001 C 235.163 103.001,224.637 98.281,224.538 97.984 C 224.439 97.686,225.205 96.813,229.517 92.309 C 230.912 90.852,233.079 88.581,234.334 87.262 C 236.613 84.866,246.181 74.863,247.281 73.725 C 248.259 72.714,248.094 73.441,246.380 77.681 M209.752 94.259 C 215.019 96.581,219.467 98.539,219.638 98.610 C 220.071 98.790,219.990 98.921,218.387 100.639 C 215.999 103.198,203.434 116.346,201.623 118.181 C 200.752 119.063,200.749 119.062,199.275 117.467 C 197.941 116.023,192.376 110.098,189.078 106.609 C 187.133 104.551,183.876 101.089,182.128 99.221 C 181.455 98.501,181.250 98.126,181.429 97.946 C 181.656 97.719,199.662 90.071,200.028 90.046 C 200.110 90.041,204.485 91.936,209.752 94.259 M181.050 101.501 C 182.298 102.788,185.803 106.487,188.838 109.721 C 191.874 112.954,195.411 116.697,196.699 118.039 C 197.986 119.380,199.040 120.548,199.040 120.634 C 199.040 121.054,180.247 140.696,179.845 140.696 C 179.737 140.696,178.700 138.292,177.541 135.354 C 176.382 132.416,173.879 126.068,171.978 121.248 C 170.077 116.429,167.874 110.873,167.083 108.903 C 165.240 104.316,165.139 104.659,168.788 103.120 C 170.438 102.423,173.193 101.254,174.910 100.522 C 178.860 98.837,178.398 98.764,181.050 101.501 M228.909 102.668 C 232.145 104.082,234.837 105.357,234.891 105.501 C 234.946 105.645,234.241 107.599,233.325 109.844 C 232.409 112.089,230.653 116.411,229.422 119.448 C 228.191 122.485,226.347 127.023,225.324 129.532 C 224.300 132.041,222.955 135.368,222.333 136.925 C 221.712 138.483,221.100 139.861,220.973 139.987 C 220.723 140.238,219.774 139.299,213.562 132.653 C 211.464 130.408,208.175 126.910,206.254 124.879 C 204.333 122.848,202.761 120.995,202.761 120.760 C 202.761 120.356,203.562 119.467,209.568 113.205 C 210.961 111.753,213.073 109.538,214.262 108.283 C 219.551 102.704,222.437 99.870,222.720 99.979 C 222.888 100.043,225.673 101.253,228.909 102.668 M164.008 107.325 C 164.357 108.182,165.943 112.179,167.534 116.206 C 169.124 120.234,171.257 125.636,172.275 128.211 C 176.456 138.794,177.197 140.786,177.018 140.965 C 176.915 141.068,173.319 139.580,169.028 137.659 C 154.575 131.189,152.368 130.203,143.457 126.224 C 127.358 119.035,128.666 119.950,132.293 118.422 C 133.679 117.838,138.379 115.865,142.737 114.038 C 147.095 112.210,153.361 109.577,156.663 108.185 C 163.600 105.259,163.187 105.308,164.008 107.325 M245.060 109.747 C 250.962 112.339,259.597 116.120,269.141 120.292 C 269.996 120.665,270.735 121.089,270.783 121.233 C 270.886 121.542,270.701 121.627,260.264 126.052 C 255.840 127.928,251.650 129.721,250.953 130.037 C 250.256 130.353,249.638 130.612,249.580 130.612 C 249.522 130.612,248.904 130.871,248.206 131.187 C 247.509 131.503,242.455 133.676,236.975 136.014 C 231.495 138.353,226.290 140.580,225.410 140.962 C 223.154 141.941,222.532 141.822,223.364 140.570 C 223.537 140.309,224.310 138.475,225.081 136.495 C 226.800 132.079,229.950 124.184,230.253 123.529 C 230.517 122.959,233.804 114.856,235.731 110.026 C 236.725 107.534,237.204 106.606,237.497 106.604 C 237.718 106.603,241.122 108.018,245.060 109.747 M133.359 124.223 C 141.465 127.874,152.011 132.601,158.583 135.529 C 173.115 142.002,176.711 143.665,176.710 143.912 C 176.708 144.204,175.999 145.015,172.897 148.269 C 168.273 153.119,161.571 160.167,159.435 162.425 C 158.186 163.745,155.906 166.122,154.367 167.707 C 152.829 169.292,151.108 171.101,150.544 171.729 C 149.246 173.172,149.289 173.179,147.471 171.248 C 135.468 158.504,128.178 141.727,127.336 124.910 C 127.142 121.041,126.467 121.118,133.359 124.223 M202.051 123.709 C 202.550 124.271,203.778 125.598,204.780 126.660 C 205.783 127.721,208.115 130.206,209.964 132.181 C 214.565 137.096,217.180 139.874,218.545 141.297 C 220.401 143.229,220.815 142.922,210.204 147.474 C 205.054 149.683,200.654 151.493,200.426 151.495 C 200.029 151.500,195.917 149.727,187.635 145.978 C 185.522 145.022,183.219 143.985,182.518 143.675 C 180.929 142.972,180.594 143.507,186.429 137.418 C 189.067 134.665,192.257 131.333,193.518 130.012 C 201.463 121.693,200.736 122.229,202.051 123.709 M273.762 123.207 C 273.926 123.700,273.019 131.616,272.492 134.278 C 269.758 148.110,263.587 160.238,253.890 170.833 C 251.853 173.059,251.551 173.190,250.710 172.209 C 250.400 171.846,249.476 170.846,248.658 169.988 C 247.839 169.130,245.397 166.537,243.229 164.226 C 241.062 161.915,238.573 159.268,237.698 158.343 C 235.840 156.381,229.328 149.432,226.471 146.364 C 225.381 145.194,224.490 144.153,224.490 144.051 C 224.490 143.948,230.621 141.247,238.115 138.048 C 245.609 134.850,252.065 132.086,252.461 131.907 C 254.594 130.945,273.374 122.939,273.509 122.934 C 273.597 122.932,273.711 123.054,273.762 123.207 M230.545 154.082 C 235.091 158.935,240.612 164.813,242.814 167.144 C 247.930 172.560,247.942 172.396,242.608 170.108 C 240.607 169.250,238.843 168.547,238.688 168.547 C 238.533 168.547,237.787 168.215,237.030 167.809 C 236.273 167.403,235.006 166.799,234.214 166.466 C 231.406 165.290,227.706 163.667,225.810 162.781 C 224.754 162.287,223.025 161.531,221.969 161.101 C 216.521 158.882,215.949 158.411,216.790 156.839 C 217.187 156.095,217.971 154.285,218.321 153.301 C 218.641 152.404,220.356 148.190,221.228 146.158 C 221.827 144.765,221.787 144.730,230.545 154.082 M179.492 146.469 C 179.668 146.925,180.791 149.777,181.988 152.807 C 183.736 157.229,184.105 158.371,183.859 158.603 C 183.639 158.811,157.436 170.149,154.922 171.123 C 154.038 171.466,154.485 170.937,159.638 165.544 C 161.743 163.340,163.307 161.700,171.207 153.417 C 173.661 150.844,176.352 148.007,177.188 147.112 C 178.868 145.312,179.030 145.267,179.492 146.469 M184.532 147.162 C 193.538 151.130,196.759 152.648,196.759 152.924 C 196.759 153.249,186.910 157.581,186.489 157.441 C 186.276 157.370,182.388 147.949,182.080 146.759 C 181.895 146.040,182.038 146.063,184.532 147.162 M218.058 147.209 C 217.761 148.619,214.010 157.263,213.695 157.263 C 213.350 157.263,208.450 155.275,205.201 153.818 C 203.261 152.948,203.172 153.013,210.810 149.702 C 217.554 146.778,218.195 146.558,218.058 147.209 M203.101 155.465 C 204.445 156.060,206.430 156.958,207.514 157.460 C 208.597 157.961,210.213 158.687,211.104 159.071 C 213.026 159.900,213.021 159.878,211.855 162.712 C 211.377 163.874,210.692 165.582,210.332 166.507 C 207.662 173.378,207.218 174.244,206.282 174.399 C 205.081 174.598,195.070 174.562,193.878 174.355 L 192.917 174.189 190.605 168.427 C 189.333 165.258,188.067 162.041,187.791 161.279 L 187.290 159.892 188.783 159.180 C 191.457 157.904,199.870 154.395,200.269 154.388 C 200.483 154.385,201.758 154.869,203.101 155.465 M186.102 163.266 C 186.596 164.520,187.719 167.358,188.597 169.572 C 189.475 171.786,190.149 173.731,190.095 173.894 C 189.977 174.245,154.729 174.437,154.513 174.088 C 154.370 173.856,184.318 160.889,184.859 160.948 C 185.059 160.969,185.584 161.949,186.102 163.266 M225.511 165.523 C 230.958 167.953,237.225 170.762,239.439 171.765 C 241.652 172.768,243.543 173.593,243.640 173.597 C 243.738 173.601,244.027 173.763,244.284 173.957 C 244.695 174.268,242.708 174.310,227.417 174.310 C 210.289 174.310,210.084 174.304,210.084 173.833 C 210.084 173.407,212.721 166.677,214.225 163.265 C 214.545 162.539,214.876 161.756,214.959 161.525 C 215.186 160.897,214.894 160.786,225.511 165.523 M191.262 176.894 C 191.507 177.057,192.748 180.068,196.622 189.891 C 198.377 194.342,198.363 193.998,196.784 193.998 C 186.305 193.998,173.027 189.807,161.585 182.888 C 158.438 180.985,153.558 177.164,153.954 176.913 C 154.337 176.670,190.897 176.652,191.262 176.894 M205.861 176.916 C 205.990 177.125,200.600 190.743,200.164 191.307 C 199.799 191.779,199.741 191.660,197.232 185.234 C 195.943 181.933,194.684 178.754,194.434 178.171 C 194.073 177.328,194.043 177.070,194.289 176.914 C 194.702 176.652,205.699 176.654,205.861 176.916 M247.299 176.909 C 247.299 177.261,244.391 179.478,240.561 182.047 C 230.131 189.042,217.308 193.349,205.222 193.917 C 202.939 194.024,201.921 193.993,201.921 193.815 C 201.921 193.435,208.390 177.376,208.688 177.017 C 208.983 176.662,247.299 176.554,247.299 176.909 " stroke="none" fill="#ffffff" fill-rule="evenodd"></path><path id="path1" d="M0.000 120.048 L 0.000 240.096 200.000 240.096 L 400.000 240.096 400.000 120.048 L 400.000 0.000 200.000 0.000 L 0.000 0.000 0.000 120.048 M207.323 38.185 C 255.896 42.316,290.054 88.376,280.408 136.735 C 279.718 140.192,279.457 141.211,278.101 145.738 C 269.960 172.929,245.322 195.251,217.047 201.055 C 160.048 212.754,109.718 162.803,120.308 105.042 C 127.879 63.745,165.747 34.650,207.323 38.185 M196.759 40.272 C 135.737 43.828,101.202 110.868,133.461 163.145 C 156.907 201.140,207.853 211.956,244.778 186.778 C 262.752 174.522,275.779 154.028,278.725 133.373 C 278.857 132.449,279.106 130.774,279.278 129.652 C 279.484 128.311,279.592 125.139,279.591 120.408 C 279.587 74.497,241.514 37.664,196.759 40.272 M209.124 44.060 C 222.587 45.728,234.672 50.519,245.185 58.356 C 290.245 91.950,285.144 161.076,235.628 187.837 C 233.794 188.828,231.807 189.827,231.212 190.056 C 230.618 190.285,230.011 190.565,229.862 190.679 C 229.001 191.337,221.696 193.809,219.328 194.243 C 218.800 194.340,217.703 194.598,216.891 194.816 C 214.971 195.333,211.659 195.911,209.244 196.152 C 208.187 196.257,206.273 196.473,204.989 196.632 C 202.152 196.984,190.456 196.406,188.389 195.812 C 187.305 195.500,183.595 194.635,178.950 193.609 C 177.348 193.255,171.034 190.566,166.694 188.389 C 134.090 172.037,117.639 134.056,127.829 98.664 C 136.349 69.073,161.743 47.455,191.957 44.071 C 198.031 43.391,203.689 43.387,209.124 44.060 M190.036 46.686 C 186.114 47.295,182.378 48.061,180.748 48.591 C 180.178 48.776,179.064 49.119,178.271 49.353 C 169.750 51.868,158.354 58.430,151.641 64.687 C 150.430 65.816,149.583 65.312,161.345 70.462 C 166.957 72.919,172.737 75.456,174.190 76.098 C 175.642 76.741,179.694 78.526,183.193 80.064 C 186.693 81.602,189.880 83.009,190.276 83.189 C 192.339 84.129,199.453 87.216,199.794 87.319 C 200.145 87.424,203.483 86.099,213.205 81.994 C 214.856 81.297,217.503 80.183,219.088 79.518 C 227.499 75.988,243.765 69.157,246.677 67.932 C 250.658 66.256,250.613 66.292,249.845 65.380 C 245.711 60.467,226.335 49.220,222.005 49.220 C 221.832 49.220,220.996 49.018,220.148 48.771 C 217.724 48.065,216.302 47.723,215.006 47.533 C 214.346 47.436,212.833 47.123,211.645 46.837 C 208.140 45.994,195.080 45.903,190.036 46.686 M145.698 70.728 C 134.781 83.109,128.192 99.019,127.328 115.086 L 127.174 117.944 127.753 117.768 C 128.071 117.671,129.682 117.020,131.333 116.322 C 132.983 115.623,136.927 113.971,140.096 112.650 C 143.265 111.330,146.993 109.768,148.379 109.179 C 149.766 108.590,153.061 107.214,155.702 106.122 C 160.680 104.063,162.305 103.321,162.305 103.106 C 162.305 103.037,161.397 100.689,160.287 97.889 C 159.176 95.088,156.415 88.097,154.149 82.353 C 148.551 68.156,148.564 68.187,148.232 68.187 C 148.071 68.187,146.930 69.331,145.698 70.728 M252.070 69.808 C 251.799 70.435,250.025 74.784,248.130 79.472 C 246.234 84.160,243.312 91.345,241.637 95.438 C 237.778 104.866,237.880 104.151,240.255 105.145 C 241.290 105.579,246.188 107.714,251.140 109.891 C 272.244 119.168,273.269 119.604,273.637 119.463 C 273.990 119.327,273.986 119.186,273.450 112.725 C 272.317 99.073,266.635 85.065,257.791 74.114 C 252.926 68.091,252.841 68.027,252.070 69.808 M155.622 70.812 C 155.727 71.107,161.384 77.213,167.094 83.195 C 168.356 84.516,170.900 87.217,172.749 89.197 C 178.188 95.024,179.183 96.038,179.455 96.037 C 179.596 96.037,181.927 95.107,184.634 93.970 C 187.341 92.833,190.960 91.314,192.677 90.593 C 194.394 89.872,195.987 89.223,196.218 89.151 C 197.160 88.857,196.422 88.384,192.013 86.452 C 189.473 85.339,186.855 84.190,186.194 83.897 C 185.534 83.605,183.752 82.827,182.233 82.168 C 180.714 81.509,177.095 79.921,174.190 78.638 C 154.471 69.936,155.458 70.352,155.622 70.812 M233.253 76.068 C 226.122 79.072,216.535 83.093,211.948 85.003 C 207.361 86.913,203.607 88.598,203.605 88.747 C 203.603 88.896,205.681 89.935,208.223 91.056 C 220.980 96.679,221.328 96.821,221.893 96.652 C 222.199 96.560,225.793 92.954,229.881 88.639 C 233.968 84.323,239.370 78.646,241.885 76.023 C 246.652 71.052,247.054 70.583,246.531 70.597 C 246.359 70.601,240.384 73.063,233.253 76.068 M152.461 71.562 C 152.461 71.947,164.291 101.946,164.541 102.196 C 164.797 102.452,176.471 97.420,176.471 97.053 C 176.471 96.616,175.760 95.764,173.020 92.917 C 171.813 91.663,169.962 89.713,168.906 88.585 C 167.850 87.457,165.309 84.755,163.258 82.582 C 159.671 78.783,157.614 76.583,154.484 73.204 C 152.887 71.480,152.461 71.134,152.461 71.562 M247.281 73.725 C 246.181 74.863,236.613 84.866,234.334 87.262 C 233.079 88.581,230.912 90.852,229.517 92.309 C 225.205 96.813,224.439 97.686,224.538 97.984 C 224.637 98.281,235.163 103.001,235.726 103.001 C 236.170 103.001,235.639 104.264,246.380 77.681 C 248.094 73.441,248.259 72.714,247.281 73.725 M190.782 93.874 C 180.228 98.303,180.888 97.895,182.128 99.221 C 183.876 101.089,187.133 104.551,189.078 106.609 C 192.376 110.098,197.941 116.023,199.275 117.467 C 200.749 119.062,200.752 119.063,201.623 118.181 C 203.434 116.346,215.999 103.198,218.387 100.639 C 219.990 98.921,220.071 98.790,219.638 98.610 C 219.467 98.539,215.019 96.581,209.752 94.259 C 204.485 91.936,200.110 90.041,200.028 90.046 C 199.947 90.052,195.786 91.774,190.782 93.874 M174.910 100.522 C 173.193 101.254,170.438 102.423,168.788 103.120 C 165.139 104.659,165.240 104.316,167.083 108.903 C 167.874 110.873,170.077 116.429,171.978 121.248 C 173.879 126.068,176.382 132.416,177.541 135.354 C 178.700 138.292,179.737 140.696,179.845 140.696 C 180.247 140.696,199.040 121.054,199.040 120.634 C 199.040 120.548,197.986 119.380,196.699 118.039 C 195.411 116.697,191.874 112.954,188.838 109.721 C 180.740 101.094,178.824 99.158,178.406 99.175 C 178.200 99.184,176.627 99.790,174.910 100.522 M219.420 102.932 C 217.772 104.621,215.452 107.029,214.262 108.283 C 213.073 109.538,210.961 111.753,209.568 113.205 C 203.562 119.467,202.761 120.356,202.761 120.760 C 202.761 120.995,204.333 122.848,206.254 124.879 C 208.175 126.910,211.464 130.408,213.562 132.653 C 219.774 139.299,220.723 140.238,220.973 139.987 C 221.100 139.861,221.712 138.483,222.333 136.925 C 222.955 135.368,224.300 132.041,225.324 129.532 C 226.347 127.023,228.191 122.485,229.422 119.448 C 230.653 116.411,232.409 112.089,233.325 109.844 C 234.241 107.599,234.946 105.645,234.891 105.501 C 234.818 105.307,225.018 100.860,222.720 99.979 C 222.551 99.914,221.084 101.226,219.420 102.932 M156.663 108.185 C 153.361 109.577,147.095 112.210,142.737 114.038 C 138.379 115.865,133.679 117.838,132.293 118.422 C 128.666 119.950,127.358 119.035,143.457 126.224 C 152.368 130.203,154.575 131.189,169.028 137.659 C 173.319 139.580,176.915 141.068,177.018 140.965 C 177.197 140.786,176.456 138.794,172.275 128.211 C 171.257 125.636,169.124 120.234,167.534 116.206 C 163.438 105.835,163.411 105.773,163.019 105.710 C 162.824 105.679,159.964 106.793,156.663 108.185 M235.731 110.026 C 233.804 114.856,230.517 122.959,230.253 123.529 C 229.950 124.184,226.800 132.079,225.081 136.495 C 224.310 138.475,223.537 140.309,223.364 140.570 C 222.532 141.822,223.154 141.941,225.410 140.962 C 226.290 140.580,231.495 138.353,236.975 136.014 C 242.455 133.676,247.509 131.503,248.206 131.187 C 248.904 130.871,249.522 130.612,249.580 130.612 C 249.638 130.612,250.256 130.353,250.953 130.037 C 251.650 129.721,255.840 127.928,260.264 126.052 C 270.701 121.627,270.886 121.542,270.783 121.233 C 270.735 121.089,269.996 120.665,269.141 120.292 C 259.597 116.120,250.962 112.339,245.060 109.747 C 241.122 108.018,237.718 106.603,237.497 106.604 C 237.204 106.606,236.725 107.534,235.731 110.026 M127.336 124.910 C 128.178 141.727,135.468 158.504,147.471 171.248 C 149.289 173.179,149.246 173.172,150.544 171.729 C 151.108 171.101,152.829 169.292,154.367 167.707 C 155.906 166.122,158.186 163.745,159.435 162.425 C 161.571 160.167,168.273 153.119,172.897 148.269 C 175.999 145.015,176.708 144.204,176.710 143.912 C 176.711 143.665,173.115 142.002,158.583 135.529 C 152.011 132.601,141.465 127.874,133.359 124.223 C 126.467 121.118,127.142 121.041,127.336 124.910 M198.192 125.150 C 196.883 126.504,194.779 128.691,193.518 130.012 C 192.257 131.333,189.067 134.665,186.429 137.418 C 180.594 143.507,180.929 142.972,182.518 143.675 C 183.219 143.985,185.522 145.022,187.635 145.978 C 195.917 149.727,200.029 151.500,200.426 151.495 C 200.654 151.493,205.054 149.683,210.204 147.474 C 220.815 142.922,220.401 143.229,218.545 141.297 C 217.180 139.874,214.565 137.096,209.964 132.181 C 208.115 130.206,205.783 127.721,204.780 126.660 C 203.778 125.598,202.550 124.271,202.051 123.709 C 200.848 122.356,200.923 122.328,198.192 125.150 M263.265 127.261 C 257.719 129.638,252.857 131.729,252.461 131.907 C 252.065 132.086,245.609 134.850,238.115 138.048 C 230.621 141.247,224.490 143.948,224.490 144.051 C 224.490 144.153,225.381 145.194,226.471 146.364 C 229.328 149.432,235.840 156.381,237.698 158.343 C 238.573 159.268,241.062 161.915,243.229 164.226 C 245.397 166.537,247.839 169.130,248.658 169.988 C 249.476 170.846,250.400 171.846,250.710 172.209 C 251.551 173.190,251.853 173.059,253.890 170.833 C 265.223 158.451,271.720 144.069,273.429 127.588 C 273.840 123.625,273.852 122.923,273.509 122.934 C 273.421 122.937,268.812 124.884,263.265 127.261 M221.228 146.158 C 220.356 148.190,218.641 152.404,218.321 153.301 C 217.971 154.285,217.187 156.095,216.790 156.839 C 215.949 158.411,216.521 158.882,221.969 161.101 C 223.025 161.531,224.754 162.287,225.810 162.781 C 227.706 163.667,231.406 165.290,234.214 166.466 C 235.006 166.799,236.273 167.403,237.030 167.809 C 237.787 168.215,238.533 168.547,238.688 168.547 C 238.843 168.547,240.607 169.250,242.608 170.108 C 247.942 172.396,247.930 172.560,242.814 167.144 C 240.612 164.813,235.091 158.935,230.545 154.082 C 221.787 144.730,221.827 144.765,221.228 146.158 M177.188 147.112 C 176.352 148.007,173.661 150.844,171.207 153.417 C 163.307 161.700,161.743 163.340,159.638 165.544 C 154.485 170.937,154.038 171.466,154.922 171.123 C 157.436 170.149,183.639 158.811,183.859 158.603 C 184.105 158.371,183.736 157.229,181.988 152.807 C 180.791 149.777,179.668 146.925,179.492 146.469 C 179.030 145.267,178.868 145.312,177.188 147.112 M182.080 146.759 C 182.388 147.949,186.276 157.370,186.489 157.441 C 186.910 157.581,196.759 153.249,196.759 152.924 C 196.759 152.744,194.587 151.638,191.717 150.357 C 181.168 145.648,181.860 145.906,182.080 146.759 M210.810 149.702 C 203.172 153.013,203.261 152.948,205.201 153.818 C 208.450 155.275,213.350 157.263,213.695 157.263 C 214.010 157.263,217.761 148.619,218.058 147.209 C 218.195 146.558,217.554 146.778,210.810 149.702 M195.078 156.431 C 192.437 157.551,189.604 158.788,188.783 159.180 L 187.290 159.892 187.791 161.279 C 188.067 162.041,189.333 165.258,190.605 168.427 L 192.917 174.189 193.878 174.355 C 195.070 174.562,205.081 174.598,206.282 174.399 C 207.218 174.244,207.662 173.378,210.332 166.507 C 210.692 165.582,211.377 163.874,211.855 162.712 C 213.021 159.878,213.026 159.900,211.104 159.071 C 210.213 158.687,208.597 157.961,207.514 157.460 C 199.607 153.800,201.009 153.916,195.078 156.431 M169.450 167.396 C 161.164 170.963,154.443 173.974,154.513 174.088 C 154.729 174.437,189.977 174.245,190.095 173.894 C 190.149 173.731,189.475 171.786,188.597 169.572 C 187.719 167.358,186.596 164.520,186.102 163.266 C 185.584 161.949,185.059 160.969,184.859 160.948 C 184.669 160.927,177.735 163.829,169.450 167.396 M214.959 161.525 C 214.876 161.756,214.545 162.539,214.225 163.265 C 212.721 166.677,210.084 173.407,210.084 173.833 C 210.084 174.304,210.289 174.310,227.417 174.310 C 242.708 174.310,244.695 174.268,244.284 173.957 C 244.027 173.763,243.738 173.601,243.640 173.597 C 243.543 173.593,241.652 172.768,239.439 171.765 C 229.883 167.433,215.588 161.104,215.360 161.104 C 215.223 161.104,215.043 161.294,214.959 161.525 M153.954 176.913 C 153.558 177.164,158.438 180.985,161.585 182.888 C 173.027 189.807,186.305 193.998,196.784 193.998 C 198.363 193.998,198.377 194.342,196.622 189.891 C 192.748 180.068,191.507 177.057,191.262 176.894 C 190.897 176.652,154.337 176.670,153.954 176.913 M194.289 176.914 C 194.043 177.070,194.073 177.328,194.434 178.171 C 194.684 178.754,195.943 181.933,197.232 185.234 C 199.741 191.660,199.799 191.779,200.164 191.307 C 200.600 190.743,205.990 177.125,205.861 176.916 C 205.699 176.654,194.702 176.652,194.289 176.914 M208.688 177.017 C 208.390 177.376,201.921 193.435,201.921 193.815 C 201.921 193.993,202.939 194.024,205.222 193.917 C 217.308 193.349,230.131 189.042,240.561 182.047 C 244.391 179.478,247.299 177.261,247.299 176.909 C 247.299 176.554,208.983 176.662,208.688 177.017 " stroke="none" fill="#040404" fill-rule="evenodd"></path></g></svg>