<?xml version="1.0" encoding="UTF-8" standalone="no"?>
<svg
   viewBox="0 0 900 600.00002"
   width="900"
   height="600"
   version="1.1"
   id="svg352"
   sodipodi:docname="Flag_of_the_Nation_of_Islam.svg"
   inkscape:export-filename="Flag_of_the_Nation_of_Islam.png"
   inkscape:export-xdpi="96"
   inkscape:export-ydpi="96"
   inkscape:version="1.2.1 (9c6d41e4, 2022-07-14)"
   xmlns:inkscape="http://www.inkscape.org/namespaces/inkscape"
   xmlns:sodipodi="http://sodipodi.sourceforge.net/DTD/sodipodi-0.dtd"
   xmlns="http://www.w3.org/2000/svg"
   xmlns:svg="http://www.w3.org/2000/svg">
  <defs
     id="defs356" />
  <sodipodi:namedview
     id="namedview354"
     pagecolor="#ffffff"
     bordercolor="#000000"
     borderopacity="0.25"
     inkscape:showpageshadow="2"
     inkscape:pageopacity="0.0"
     inkscape:pagecheckerboard="0"
     inkscape:deskcolor="#d1d1d1"
     showgrid="false"
     inkscape:zoom="0.75733977"
     inkscape:cx="488.55218"
     inkscape:cy="267.38329"
     inkscape:window-width="1728"
     inkscape:window-height="975"
     inkscape:window-x="0"
     inkscape:window-y="32"
     inkscape:window-maximized="1"
     inkscape:current-layer="svg352" />
  <rect
     width="900"
     height="600"
     style="fill:#d4070c;stroke-width:0.936374"
     id="rect316"
     x="0"
     y="0" />
  <g
     id="g707"
     transform="matrix(0.99739615,0,0,0.99739615,0.40831788,2.9962079)">
    <g
       id="g7939"
       transform="matrix(0.88400144,0,0,0.88400144,69.246754,34.531096)">
      <path
         id="path484"
         style="fill:#ffffff;fill-opacity:1;stroke:#ffffff;stroke-width:0;stroke-linecap:square;stroke-dasharray:none"
         d="m 606.49881,70.99085 a 227.03585,227.03585 0 0 0 -108.29,25.372908 203.72589,203.72589 0 0 1 26.67205,-2.101153 203.72589,203.72589 0 0 1 11.02939,0.300481 203.72589,203.72589 0 0 1 10.99625,0.894812 203.72589,203.72589 0 0 1 10.93218,1.489145 203.72589,203.72589 0 0 1 10.83718,2.079059 203.72589,203.72589 0 0 1 10.70682,2.662348 203.72589,203.72589 0 0 1 10.54774,3.239 203.72589,203.72589 0 0 1 10.35773,3.80461 203.72589,203.72589 0 0 1 10.13458,4.36138 203.72589,203.72589 0 0 1 9.88492,4.90048 203.72589,203.72589 0 0 1 9.60432,5.43074 203.72589,203.72589 0 0 1 9.29721,5.94332 203.72589,203.72589 0 0 1 8.96139,6.43602 203.72589,203.72589 0 0 1 8.59904,6.91326 203.72589,203.72589 0 0 1 8.21239,7.3684 203.72589,203.72589 0 0 1 7.80144,7.80144 203.72589,203.72589 0 0 1 7.36839,8.21239 203.72589,203.72589 0 0 1 6.91326,8.59904 203.72589,203.72589 0 0 1 6.43602,8.96138 203.72589,203.72589 0 0 1 5.94332,9.29721 203.72589,203.72589 0 0 1 5.43074,9.60432 203.72589,203.72589 0 0 1 4.90269,9.88492 203.72589,203.72589 0 0 1 4.35918,10.13679 203.72589,203.72589 0 0 1 3.80461,10.35552 203.72589,203.72589 0 0 1 3.239,10.54775 203.72589,203.72589 0 0 1 2.66234,10.70681 203.72589,203.72589 0 0 1 2.07906,10.83718 203.72589,203.72589 0 0 1 1.48914,10.93218 203.72589,203.72589 0 0 1 0.89703,10.99625 203.72589,203.72589 0 0 1 0.29827,11.0294 203.72589,203.72589 0 0 1 -2.50769,31.87079 203.72589,203.72589 0 0 1 -7.4634,31.08424 203.72589,203.72589 0 0 1 -12.23352,29.53545 203.72589,203.72589 0 0 1 -16.70317,27.25753 203.72589,203.72589 0 0 1 -20.76186,24.30798 203.72589,203.72589 0 0 1 -24.31018,20.76186 203.72589,203.72589 0 0 1 -27.25754,16.70538 203.72589,203.72589 0 0 1 -29.53324,12.23352 203.72589,203.72589 0 0 1 -31.08645,7.46119 203.72589,203.72589 0 0 1 -31.86858,2.50989 203.72589,203.72589 0 0 1 -26.6853,-2.10115 A 227.03585,227.03585 0 0 0 795.53184,415.81186 227.03585,227.03585 0 0 0 719.3159,103.91333 227.03585,227.03585 0 0 0 606.49881,70.99085 Z" />
    </g>
    <path
       id="path1665"
       style="fill:#ffffff;fill-opacity:1;stroke:#ffffff;stroke-width:0;stroke-linecap:square;stroke-dasharray:none"
       d="m 486.61523,234.38867 -0.89453,50.37891 -48.18945,14.71875 47.63672,16.41797 -0.89649,50.3789 30.33789,-40.23046 47.63477,16.41796 -28.88867,-41.28125 30.33789,-40.23242 -48.18945,14.71875 z" />
  </g>
</svg>
